<?xml version="1.0" encoding="utf-8"?>
<!-- Generator: Adobe Illustrator 25.4.1, SVG Export Plug-In . SVG Version: 6.00 Build 0)  -->
<svg version="1.1" id="Layer_1" xmlns="http://www.w3.org/2000/svg" xmlns:xlink="http://www.w3.org/1999/xlink" x="0px" y="0px"
	 viewBox="0 0 800 800" style="enable-background:new 0 0 800 800;" xml:space="preserve">
<style type="text/css">
	.st0{fill:#333E48;}
	.st1{fill:#61B4E4;}
</style>
<g>
	<path class="st0" d="M615.7,437.6c27.6-25.2,45-61.4,45-101.8c0-76-61.6-137.6-137.6-137.6c-56.6,0-105.2,34.2-126.3,83
		c25.9,29.3,41.7,67.7,41.7,109.8c0,35.3-11.4,69.5-31.8,97.6c19.4,17.1,35.3,37.7,47,60.6H694C684,502.3,655.1,462.3,615.7,437.6z"
		/>
	<path class="st1" d="M102,604.5h341.7c-10-47-38.8-87-78.3-111.7c27.6-25.2,45-61.4,45-101.8c0-76-61.6-137.6-137.6-137.6
		c-76,0-137.6,61.6-137.6,137.6c0,40.3,17.4,76.6,45,101.8C140.8,517.5,112,557.5,102,604.5z"/>
</g>
</svg>
