<?xml version="1.0" encoding="utf-8"?>
<!-- Generator: Adobe Illustrator 25.4.1, SVG Export Plug-In . SVG Version: 6.00 Build 0)  -->
<svg version="1.1" id="Layer_1" xmlns="http://www.w3.org/2000/svg" xmlns:xlink="http://www.w3.org/1999/xlink" x="0px" y="0px"
	 viewBox="0 0 800 800" style="enable-background:new 0 0 800 800;" xml:space="preserve">
<style type="text/css">
	.st0{fill:#6DD0FC;}
	.st1{fill:#A4ECFF;}
	.st2{fill:#2FB1EA;}
	.st3{fill:#D4FFD4;}
	.st4{fill:#FFBDBD;}
	.st5{fill:#BBF1FF;}
	.st6{fill:#FFF4C5;}
</style>
<g id="Layer_2_00000096762258157670948160000005927228435579498166_">
	<polygon class="st0" points="156.2,662.5 237.5,541.7 318.8,501 400,536.3 481.2,423.9 562.5,433.3 643.8,218.8 643.8,662.5 	"/>
	<polygon class="st1" points="390.6,572.3 471.9,607.6 553.1,495.2 634.4,504.6 643.8,479.8 643.8,218.8 562.5,433.3 481.2,423.9 
		400,536.3 318.8,501 237.5,541.7 183.2,622.5 303.1,622.3 309.4,612.9 	"/>
	<path class="st2" d="M643.8,668.8H156.2c-3.5,0-6.3-2.8-6.3-6.2c0-1.3,0.4-2.5,1.1-3.5l81.2-120.8c0.6-0.9,1.4-1.6,2.4-2.1
		l81.2-40.6c1.7-0.8,3.6-0.8,5.3,0l76.6,33.3l78.3-108.4c1.3-1.8,3.5-2.8,5.8-2.5l76.4,8.9l79.5-210c1.2-3.2,4.8-4.9,8.1-3.6
		c2.4,0.9,4,3.2,4,5.7v443.8C650,666,647.2,668.8,643.8,668.8z M168,656.2h469.5V252.9l-69.2,182.6c-1,2.7-3.7,4.3-6.6,4l-77.6-9
		l-79.1,109.4c-1.7,2.4-4.9,3.2-7.6,2.1L319,507.8l-77.2,38.7L168,656.2z"/>
	<path class="st2" d="M725,668.8H75c-3.5,0-6.2-2.8-6.2-6.2s2.8-6.2,6.2-6.2h650c3.5,0,6.2,2.8,6.2,6.2S728.5,668.8,725,668.8z"/>
	<circle class="st3" cx="646.9" cy="725" r="15.6"/>
	<circle class="st3" cx="90.6" cy="521.9" r="12.5"/>
	<circle class="st3" cx="540.6" cy="278.1" r="9.4"/>
	<circle class="st3" cx="325" cy="425" r="6.2"/>
	<circle class="st3" cx="90.6" cy="718.8" r="3.1"/>
	<circle class="st4" cx="21.9" cy="593.8" r="15.6"/>
	<circle class="st4" cx="625" cy="96.9" r="12.5"/>
	<circle class="st4" cx="93.8" cy="271.9" r="9.4"/>
	<circle class="st4" cx="703.1" cy="231.2" r="6.2"/>
	<circle class="st4" cx="740.6" cy="346.9" r="3.1"/>
	<circle class="st5" cx="471.9" cy="75" r="15.6"/>
	<circle class="st5" cx="68.8" cy="409.4" r="12.5"/>
	<circle class="st5" cx="446.9" cy="696.9" r="9.4"/>
	<circle class="st5" cx="515.6" cy="318.8" r="6.2"/>
	<circle class="st5" cx="87.5" cy="162.5" r="3.1"/>
	<circle class="st6" cx="778.1" cy="550" r="15.6"/>
	<circle class="st6" cx="684.4" cy="318.8" r="12.5"/>
	<circle class="st6" cx="303.1" cy="109.4" r="9.4"/>
	<circle class="st6" cx="231.2" cy="478.1" r="6.2"/>
	<circle class="st6" cx="306.2" cy="728.1" r="3.1"/>
</g>
</svg>
