<?xml version="1.0" encoding="utf-8"?>
<!-- Generator: Adobe Illustrator 25.4.1, SVG Export Plug-In . SVG Version: 6.00 Build 0)  -->
<svg version="1.1" id="Layer_1" xmlns="http://www.w3.org/2000/svg" xmlns:xlink="http://www.w3.org/1999/xlink" x="0px" y="0px"
	 viewBox="0 0 800 800" style="enable-background:new 0 0 800 800;" xml:space="preserve">
<style type="text/css">
	.st0{fill:#45596B;}
	.st1{fill:#647F94;}
	.st2{fill:#95AEC2;}
	.st3{fill:#6EC4A7;}
</style>
<g>
	<g>
		<path class="st0" d="M288.5,658.8c-4,0-8-1.2-11.5-3.7c-8.9-6.4-11-18.7-4.6-27.6l77.7-108.8c6.4-8.9,18.7-10.9,27.6-4.6
			c8.9,6.4,11,18.7,4.6,27.6l-77.7,108.8C300.8,655.9,294.7,658.8,288.5,658.8z"/>
		<path class="st0" d="M520.3,658.8c-6.2,0-12.3-2.9-16.1-8.3l-77.7-108.8c-6.3-8.9-4.3-21.3,4.6-27.6c8.9-6.3,21.3-4.3,27.6,4.6
			l77.7,108.8c6.4,8.9,4.3,21.3-4.6,27.6C528.3,657.6,524.3,658.8,520.3,658.8z"/>
		<path class="st1" d="M624.7,135.5H184.2c-8.2,0-14.9,6.6-14.9,14.8v379.8c0,8.2,6.7,14.9,14.9,14.9h393.3
			c34.2,0,62.1-27.8,62.1-62.1V150.4C639.5,142.2,632.9,135.5,624.7,135.5z"/>
		<g>
			<path class="st2" d="M399.6,302.7c-8.2,0-14.9,6.6-14.9,14.8v138.8c0,8.2,6.7,14.9,14.9,14.9c8.2,0,14.8-6.6,14.8-14.9V317.5
				C414.4,309.3,407.7,302.7,399.6,302.7z"/>
			<path class="st2" d="M305.2,355.4c-8.2,0-14.9,6.6-14.9,14.8v86.1c0,8.2,6.7,14.8,14.9,14.8c8.2,0,14.9-6.6,14.9-14.8v-86.1
				C320.1,362,313.4,355.4,305.2,355.4z"/>
			<path class="st2" d="M506.3,344.3c-8.2,0-14.8,6.6-14.8,14.9v97.2c0,8.2,6.6,14.9,14.8,14.9c8.2,0,14.9-6.6,14.9-14.9v-97.2
				C521.2,350.9,514.5,344.3,506.3,344.3z"/>
			<path class="st3" d="M569.1,223.8c-5.8-5.9-15.2-6-21-0.2l-60.3,59L374,221.1c-5.2-2.8-11.6-2.3-16.2,1.4l-116.6,91.7
				c-6.4,5.1-7.6,14.4-2.5,20.8c2.9,3.7,7.3,5.7,11.7,5.7c3.2,0,6.5-1,9.2-3.2l109-85.6l114.9,62c5.7,3.1,12.8,2.1,17.4-2.5
				l68.1-66.6C574.8,239.1,574.9,229.7,569.1,223.8z"/>
		</g>
		<path class="st0" d="M654.1,170.2H155.6c-10.9,0-19.8-8.9-19.8-19.8c0-10.9,8.9-19.8,19.8-19.8h498.6c10.9,0,19.8,8.9,19.8,19.8
			C673.9,161.3,665,170.2,654.1,170.2z"/>
	</g>
</g>
</svg>
