<?xml version="1.0" encoding="utf-8"?>
<!-- Generator: Adobe Illustrator 25.4.1, SVG Export Plug-In . SVG Version: 6.00 Build 0)  -->
<svg version="1.1" id="Layer_1" xmlns="http://www.w3.org/2000/svg" xmlns:xlink="http://www.w3.org/1999/xlink" x="0px" y="0px"
	 viewBox="0 0 800 800" style="enable-background:new 0 0 800 800;" xml:space="preserve">
<style type="text/css">
	.st0{fill:#2AFFB4;}
	.st1{fill:#FFFFFF;}
	.st2{fill:#FF9E16;}
	.st3{fill:#1E252B;}
</style>
<path class="st0" d="M630.2,177.3c0-15-12.3-27.3-27.3-27.3H214.9c-15,0-27.3,12.3-27.3,27.3v426.2c0,15,12.3,27.3,27.3,27.3h388.1
	c15,0,27.3-12.3,27.3-27.3V177.3L630.2,177.3z"/>
<g>
	<circle class="st1" cx="281.6" cy="237" r="54.4"/>
	<circle class="st1" cx="281.6" cy="392.2" r="54.4"/>
	<circle class="st1" cx="281.6" cy="547.5" r="54.4"/>
</g>
<path class="st2" d="M266.4,264.5c-2,0-4-0.8-5.6-2.3l-14-14c-3.1-3.1-3.1-8.1,0-11.1c3.1-3.1,8.1-3.1,11.1,0l8.4,8.4l32.9-32.9
	c3.1-3.1,8.1-3.1,11.1,0c3.1,3.1,3.1,8.1,0,11.1l-38.4,38.4C270.4,263.7,268.4,264.5,266.4,264.5z"/>
<path class="st3" d="M360.8,419h185.4c4.3,0,7.9-3.5,7.9-7.9s-3.5-7.9-7.9-7.9H360.8c-4.3,0-7.9,3.5-7.9,7.9S356.5,419,360.8,419z
	 M546.2,558.6H360.8c-4.3,0-7.9,3.5-7.9,7.9c0,4.3,3.5,7.9,7.9,7.9h185.4c4.3,0,7.9-3.5,7.9-7.9
	C554.1,562.1,550.6,558.6,546.2,558.6z M590.6,365.5H360.8c-4.3,0-7.9,3.5-7.9,7.9s3.5,7.9,7.9,7.9h229.8c4.3,0,7.9-3.5,7.9-7.9
	S595,365.5,590.6,365.5z M590.6,520.7H360.8c-4.3,0-7.9,3.5-7.9,7.9c0,4.3,3.5,7.9,7.9,7.9h229.8c4.3,0,7.9-3.5,7.9-7.9
	S595,520.7,590.6,520.7z M602.9,142.1H214.9c-19.4,0-35.1,15.8-35.1,35.1v426.2c0,19.4,15.8,35.1,35.1,35.1h388.1
	c19.4,0,35.1-15.8,35.1-35.1V177.3C638.1,157.9,622.3,142.1,602.9,142.1z M622.3,603.5c0,10.7-8.7,19.4-19.4,19.4H214.9
	c-10.7,0-19.4-8.7-19.4-19.4V177.3c0-10.7,8.7-19.4,19.4-19.4h388.1c10.7,0,19.4,8.7,19.4,19.4V603.5L622.3,603.5z M360.8,263.7
	h185.4c4.3,0,7.9-3.5,7.9-7.9s-3.5-7.9-7.9-7.9H360.8c-4.3,0-7.9,3.5-7.9,7.9S356.5,263.7,360.8,263.7z M590.6,210.2H360.8
	c-4.3,0-7.9,3.5-7.9,7.9c0,4.3,3.5,7.9,7.9,7.9h229.8c4.3,0,7.9-3.5,7.9-7.9C598.5,213.7,595,210.2,590.6,210.2z"/>
<path class="st2" d="M266.4,430.4c-2,0-4-0.8-5.6-2.3l-14-14c-3.1-3.1-3.1-8.1,0-11.1c3.1-3.1,8.1-3.1,11.1,0l8.4,8.4l32.9-32.9
	c3.1-3.1,8.1-3.1,11.1,0c3.1,3.1,3.1,8.1,0,11.1l-38.4,38.4C270.4,429.6,268.4,430.4,266.4,430.4z"/>
<path class="st2" d="M266.4,585.7c-2,0-4-0.8-5.6-2.3l-14-14c-3.1-3.1-3.1-8.1,0-11.1c3.1-3.1,8.1-3.1,11.1,0l8.4,8.4l32.9-32.9
	c3.1-3.1,8.1-3.1,11.1,0c3.1,3.1,3.1,8.1,0,11.1l-38.4,38.4C270.4,584.9,268.4,585.7,266.4,585.7z"/>
</svg>
