<?xml version="1.0" encoding="utf-8"?>
<!-- Generator: Adobe Illustrator 25.4.1, SVG Export Plug-In . SVG Version: 6.00 Build 0)  -->
<svg version="1.1" id="Layer_1" xmlns="http://www.w3.org/2000/svg" xmlns:xlink="http://www.w3.org/1999/xlink" x="0px" y="0px"
	 viewBox="0 0 800 800" style="enable-background:new 0 0 800 800;" xml:space="preserve">
<style type="text/css">
	.st0{fill:#FFA75F;}
	.st1{fill:#FFFFFF;}
	.st2{fill:#1E252B;}
</style>
<path class="st0" d="M630.2,177.3c0-15-12.3-27.3-27.3-27.3h-388c-15,0-27.3,12.3-27.3,27.3v426.2c0,15,12.3,27.3,27.3,27.3H603
	c15,0,27.3-12.3,27.3-27.3L630.2,177.3L630.2,177.3z"/>
<g>
	<circle class="st1" cx="281.6" cy="237" r="54.4"/>
	<circle class="st1" cx="281.6" cy="392.2" r="54.4"/>
	<circle class="st1" cx="281.6" cy="547.5" r="54.4"/>
</g>
<path class="st2" d="M360.8,419h185.4c4.3,0,7.9-3.5,7.9-7.9s-3.5-7.9-7.9-7.9H360.8c-4.3,0-7.9,3.5-7.9,7.9S356.5,419,360.8,419z
	 M546.2,558.6H360.8c-4.3,0-7.9,3.5-7.9,7.9c0,4.3,3.5,7.9,7.9,7.9h185.4c4.3,0,7.9-3.5,7.9-7.9S550.6,558.6,546.2,558.6z
	 M590.6,365.5H360.8c-4.3,0-7.9,3.5-7.9,7.9s3.5,7.9,7.9,7.9h229.8c4.3,0,7.9-3.5,7.9-7.9S595,365.5,590.6,365.5z M590.6,520.7
	H360.8c-4.3,0-7.9,3.5-7.9,7.9c0,4.3,3.5,7.9,7.9,7.9h229.8c4.3,0,7.9-3.5,7.9-7.9S595,520.7,590.6,520.7z M602.9,142.1h-388
	c-19.4,0-35.1,15.8-35.1,35.1v426.2c0,19.4,15.8,35.1,35.1,35.1H603c19.4,0,35.1-15.8,35.1-35.1V177.3
	C638.1,157.9,622.3,142.1,602.9,142.1z M622.3,603.5c0,10.7-8.7,19.4-19.4,19.4h-388c-10.7,0-19.4-8.7-19.4-19.4V177.3
	c0-10.7,8.7-19.4,19.4-19.4H603c10.7,0,19.4,8.7,19.4,19.4v426.2H622.3z M360.8,263.7h185.4c4.3,0,7.9-3.5,7.9-7.9s-3.5-7.9-7.9-7.9
	H360.8c-4.3,0-7.9,3.5-7.9,7.9S356.5,263.7,360.8,263.7z M590.6,210.2H360.8c-4.3,0-7.9,3.5-7.9,7.9c0,4.3,3.5,7.9,7.9,7.9h229.8
	c4.3,0,7.9-3.5,7.9-7.9S595,210.2,590.6,210.2z"/>
</svg>
