<?xml version="1.0" encoding="utf-8"?>
<!-- Generator: Adobe Illustrator 25.4.1, SVG Export Plug-In . SVG Version: 6.00 Build 0)  -->
<svg version="1.1" id="Layer_1" xmlns="http://www.w3.org/2000/svg" xmlns:xlink="http://www.w3.org/1999/xlink" x="0px" y="0px"
	 viewBox="0 0 800 800" style="enable-background:new 0 0 800 800;" xml:space="preserve">
<style type="text/css">
	.st0{fill:#C1C4CC;}
</style>
<path class="st0" d="M690.3,310.4c12.3,0,22.2,10,22.2,22.2l0,0v333.4c0,36.8-29.9,66.7-66.7,66.7h-489c-36.8,0-66.7-29.9-66.7-66.7
	l0,0V332.7c0-12.3,10-22.2,22.2-22.2H690.3z M401.3,354.9c-92.1,0-166.7,74.6-166.7,166.7s74.6,166.7,166.7,166.7
	S568,613.7,568,521.6S493.4,354.9,401.3,354.9z M433.2,434.6l59.8,58.4c2.2,3,2.2,7,0,10l-59.8,57.7c-4.2,4.3-10,0.7-10-6.6v-34.6
	c-37.8-1.9-70.1,27.1-72,65c0,0.1,0,0.1,0,0.2c-0.2,2.6-0.2,5.1,0,7.7h-43.2c-0.9-63.1,49.5-115,112.6-115.9c0,0,0,0,0,0h3V441
	C423.5,433.8,429.6,430.2,433.2,434.6z M545.8,65.9c24.6,0,44.5,19.9,44.5,44.5l0,0v22.2h55.6c36.8,0,66.7,29.9,66.7,66.7l0,0v22.2
	c0,12.3-10,22.2-22.2,22.2h-578c-12.3,0-22.2-10-22.2-22.2l0,0v-22.2c0-36.8,29.9-66.7,66.7-66.7h55.6v-22.2
	c0-24.6,19.9-44.5,44.5-44.5c24.6,0,44.5,19.9,44.5,44.5l0,0v22.2h200.1v-22.2C501.3,85.8,521.2,65.9,545.8,65.9z"/>
</svg>
