<?xml version="1.0" encoding="utf-8"?>
<!-- Generator: Adobe Illustrator 25.4.1, SVG Export Plug-In . SVG Version: 6.00 Build 0)  -->
<svg version="1.1" id="Layer_1" xmlns="http://www.w3.org/2000/svg" xmlns:xlink="http://www.w3.org/1999/xlink" x="0px" y="0px"
	 viewBox="0 0 800 800" style="enable-background:new 0 0 800 800;" xml:space="preserve">
<style type="text/css">
	.st0{fill:#FFFFFF;}
	.st1{fill:#6A576D;}
	.st2{fill:#82CFCD;}
</style>
<path class="st0" d="M238.7,137.5h325.6c17.8,0,32.6,14.8,32.6,32.6V626c0,17.8-14.8,32.6-32.6,32.6H238.7
	c-17.8,0-32.6-14.8-32.6-32.6V170C206.1,152.2,220.9,137.5,238.7,137.5z"/>
<path class="st0" d="M348.5,595.6h-77.7c-5.6,0-10.4-4.8-10.4-10.4v-77.7c0-5.6,4.8-10.4,10.4-10.4h77.7c5.6,0,10.4,4.8,10.4,10.4
	v77.7C359,590.8,354.2,595.6,348.5,595.6L348.5,595.6z"/>
<path class="st1" d="M564.3,662.9H238.7c-20.4,0-36.9-16.5-36.9-36.9V170c0-20.4,16.5-36.9,36.9-36.9h325.6
	c20.4,0,36.9,16.5,36.9,36.9V626C601.2,646.4,584.7,662.9,564.3,662.9z M238.7,141.8c-15.6,0-28.2,12.6-28.2,28.2V626
	c0,15.6,12.6,28.2,28.2,28.2h325.6c15.6,0,28.2-12.6,28.2-28.2V170c0-15.6-12.6-28.2-28.2-28.2H238.7z"/>
<path class="st2" d="M348.5,299.4h-77.7c-5.6,0-10.4-4.8-10.4-10.4v-78.2c0-5.6,4.8-10.4,10.4-10.4h77.7c5.6,0,10.4,4.8,10.4,10.4
	v77.7C359,294.7,354.2,299.4,348.5,299.4L348.5,299.4z"/>
<path class="st1" d="M348.5,303.8h-77.7c-8.2,0-14.8-6.5-14.8-14.8v-78.2c0-8.2,6.5-14.8,14.8-14.8h77.7c8.2,0,14.8,6.5,14.8,14.8
	v77.7C363.3,296.8,356.8,303.8,348.5,303.8L348.5,303.8z M270.8,204.8c-3.5,0-6.1,2.6-6.1,6.1v77.7c0,3.5,2.6,6.1,6.1,6.1h77.7
	c3.5,0,6.1-2.6,6.1-6.1v-77.7c0-3.5-2.6-6.1-6.1-6.1H270.8z"/>
<path class="st2" d="M348.5,447.5h-77.7c-5.6,0-10.4-4.8-10.4-10.4v-78.2c0-5.6,4.8-10.4,10.4-10.4h77.7c5.6,0,10.4,4.8,10.4,10.4
	v78.2C359,442.7,354.2,447.5,348.5,447.5L348.5,447.5z"/>
<path class="st1" d="M348.5,451.8h-77.7c-8.2,0-14.8-6.5-14.8-14.8v-78.2c0-8.2,6.5-14.8,14.8-14.8h77.7c8.2,0,14.8,6.5,14.8,14.8
	v78.2C363.3,444.9,356.8,451.8,348.5,451.8L348.5,451.8z M270.8,352.8c-3.5,0-6.1,2.6-6.1,6.1v78.2c0,3.5,2.6,6.1,6.1,6.1h77.7
	c3.5,0,6.1-2.6,6.1-6.1v-78.2c0-3.5-2.6-6.1-6.1-6.1H270.8z M348.5,599.9h-77.7c-8.2,0-14.8-6.5-14.8-14.8v-77.7
	c0-8.2,6.5-14.8,14.8-14.8h77.7c8.2,0,14.8,6.5,14.8,14.8v77.7C363.3,593.4,356.8,599.9,348.5,599.9L348.5,599.9z M270.8,500.9
	c-3.5,0-6.1,2.6-6.1,6.1v77.7c0,3.5,2.6,6.1,6.1,6.1h77.7c3.5,0,6.1-2.6,6.1-6.1v-77.3c0-3.5-2.6-6.1-6.1-6.1h-77.7V500.9z
	 M348.5,303.8h-77.7c-8.2,0-14.8-6.5-14.8-14.8v-78.2c0-8.2,6.5-14.8,14.8-14.8h77.7c8.2,0,14.8,6.5,14.8,14.8v77.7
	C363.3,296.8,356.8,303.8,348.5,303.8L348.5,303.8z M270.8,204.8c-3.5,0-6.1,2.6-6.1,6.1v77.7c0,3.5,2.6,6.1,6.1,6.1h77.7
	c3.5,0,6.1-2.6,6.1-6.1v-77.7c0-3.5-2.6-6.1-6.1-6.1H270.8z"/>
<path class="st1" d="M348.5,451.8h-77.7c-8.2,0-14.8-6.5-14.8-14.8v-78.2c0-8.2,6.5-14.8,14.8-14.8h77.7c8.2,0,14.8,6.5,14.8,14.8
	v78.2C363.3,444.9,356.8,451.8,348.5,451.8L348.5,451.8z M270.8,352.8c-3.5,0-6.1,2.6-6.1,6.1v78.2c0,3.5,2.6,6.1,6.1,6.1h77.7
	c3.5,0,6.1-2.6,6.1-6.1v-78.2c0-3.5-2.6-6.1-6.1-6.1H270.8z M348.5,599.9h-77.7c-8.2,0-14.8-6.5-14.8-14.8v-77.7
	c0-8.2,6.5-14.8,14.8-14.8h77.7c8.2,0,14.8,6.5,14.8,14.8v77.7C363.3,593.4,356.8,599.9,348.5,599.9L348.5,599.9z M270.8,500.9
	c-3.5,0-6.1,2.6-6.1,6.1v77.7c0,3.5,2.6,6.1,6.1,6.1h77.7c3.5,0,6.1-2.6,6.1-6.1v-77.3c0-3.5-2.6-6.1-6.1-6.1h-77.7V500.9z
	 M540.4,254.3H421c-2.6,0-4.3-1.7-4.3-4.3c0-2.6,1.7-4.3,4.3-4.3h119.4c2.6,0,4.3,1.7,4.3,4.3C544.8,252.5,543.1,254.3,540.4,254.3z
	"/>
<path class="st1" d="M540.4,402.3H421c-2.6,0-4.3-1.7-4.3-4.3s1.7-4.3,4.3-4.3h119.4c2.6,0,4.3,1.7,4.3,4.3S543.1,402.3,540.4,402.3
	z"/>
<path class="st1" d="M539.6,550.4H420.2c-2.6,0-4.3-1.7-4.3-4.3c0-2.6,1.7-4.3,4.3-4.3h119.4c2.6,0,4.3,1.7,4.3,4.3
	C543.9,548.7,541.8,550.4,539.6,550.4z"/>
</svg>
